<svg width="2002" height="920" viewBox="0 0 2002 920" fill="none" xmlns="http://www.w3.org/2000/svg">
<g clip-path="url(#clip0)">
<rect width="2002" height="920" fill="white"/>
<rect width="2002" height="920" fill="#EAF3FA"/>
<path fill-rule="evenodd" clip-rule="evenodd" d="M443.867 358.057C505.51 379.328 488.849 478.124 531.093 527.8C578.665 583.74 677.454 590.236 700.581 659.932C724.509 732.04 703.791 825.699 646.503 875.6C589.687 925.091 502.43 895.137 427.14 898.117C375.904 900.144 328.317 895.197 277.284 890.211C209.138 883.552 130.627 908.591 78.6124 864.063C25.087 818.241 8.78669 737.297 16.9024 667.307C24.5791 601.103 70.9438 546.569 120.584 502.097C162.451 464.589 220.956 461.379 272.302 438.501C331.444 412.15 382.661 336.938 443.867 358.057Z" fill="#FB974E"/>
<path fill-rule="evenodd" clip-rule="evenodd" d="M1631.97 0.043474C1691.37 -0.783068 1748.52 10.1418 1802.11 35.7718C1866.15 66.3952 1939.53 95.7554 1968.03 160.762C1997.29 227.515 1989.9 312.263 1950.09 373.313C1912.87 430.378 1834.42 435.827 1771.54 462.045C1725.39 481.283 1681.3 497.8 1631.97 505.947C1572.02 515.849 1506.57 545.5 1454.35 514.435C1401.66 483.092 1398.49 410.108 1375.4 353.318C1350 290.865 1294.12 231.024 1312.72 166.222C1331.37 101.3 1405.32 71.6467 1465.24 40.4595C1517.24 13.3921 1573.36 0.859137 1631.97 0.043474Z" fill="#0071B9"/>
<path d="M466.287 294C463.987 294 461.987 293.15 460.287 291.45C458.587 289.75 457.737 287.75 457.737 285.45V193.05C457.737 190.75 458.587 188.75 460.287 187.05C461.987 185.35 463.987 184.5 466.287 184.5H473.637C479.337 184.5 483.487 187 486.087 192L517.587 251.55C517.587 251.65 517.637 251.7 517.737 251.7C517.837 251.7 517.887 251.65 517.887 251.55V193.05C517.887 190.75 518.737 188.75 520.437 187.05C522.137 185.35 524.137 184.5 526.437 184.5H533.787C536.087 184.5 538.087 185.35 539.787 187.05C541.487 188.75 542.337 190.75 542.337 193.05V285.45C542.337 287.75 541.487 289.75 539.787 291.45C538.087 293.15 536.087 294 533.787 294H526.437C520.737 294 516.587 291.5 513.987 286.5L482.487 226.95C482.487 226.85 482.437 226.8 482.337 226.8C482.237 226.8 482.187 226.85 482.187 226.95V285.45C482.187 287.75 481.337 289.75 479.637 291.45C477.937 293.15 475.937 294 473.637 294H466.287ZM584.46 292.8L559.11 223.95C558.31 222.05 558.51 220.25 559.71 218.55C560.91 216.85 562.56 216 564.66 216H574.11C576.51 216 578.71 216.8 580.71 218.4C582.71 219.9 584.01 221.85 584.61 224.25L596.01 270.9C596.01 271 596.06 271.05 596.16 271.05C596.26 271.05 596.31 271 596.31 270.9L609.96 224.1C610.56 221.7 611.86 219.75 613.86 218.25C615.96 216.75 618.31 216 620.91 216H629.16C631.16 216 632.76 216.85 633.96 218.55C635.16 220.25 635.41 222.05 634.71 223.95L599.31 319.05C598.41 321.45 596.91 323.35 594.81 324.75C592.71 326.25 590.41 327 587.91 327H579.66C577.56 327 575.96 326.15 574.86 324.45C573.76 322.85 573.61 321.1 574.41 319.2L584.46 295.2C584.56 294.8 584.61 294.4 584.61 294C584.61 293.6 584.56 293.2 584.46 292.8ZM681.512 258.3C669.312 258.3 663.212 262.05 663.212 269.55C663.212 272.25 664.012 274.4 665.612 276C667.212 277.5 669.362 278.25 672.062 278.25C676.862 278.25 680.762 276.75 683.762 273.75C686.762 270.65 688.262 266.55 688.262 261.45V259.65C688.262 258.75 687.812 258.3 686.912 258.3H681.512ZM664.712 295.5C657.812 295.5 652.112 293.3 647.612 288.9C643.212 284.4 641.012 278.6 641.012 271.5C641.012 253.3 654.512 244.2 681.512 244.2H686.912C687.812 244.2 688.262 243.8 688.262 243V242.25C688.262 238.45 687.262 235.7 685.262 234C683.362 232.3 680.112 231.45 675.512 231.45C669.412 231.45 662.112 232.4 653.612 234.3C651.512 234.7 649.612 234.25 647.912 232.95C646.312 231.65 645.512 229.95 645.512 227.85V227.55C645.512 225.05 646.262 222.8 647.762 220.8C649.362 218.7 651.362 217.45 653.762 217.05C662.562 215.35 670.162 214.5 676.562 214.5C689.662 214.5 698.912 216.85 704.312 221.55C709.812 226.25 712.562 234.05 712.562 244.95V285.45C712.562 287.75 711.712 289.75 710.012 291.45C708.312 293.15 706.312 294 704.012 294H698.462C696.062 294 694.012 293.2 692.312 291.6C690.612 289.9 689.712 287.85 689.612 285.45V283.8C689.612 283.7 689.562 283.65 689.462 283.65C689.262 283.65 689.162 283.7 689.162 283.8C682.862 291.6 674.712 295.5 664.712 295.5ZM740.028 294C737.728 294 735.728 293.15 734.028 291.45C732.428 289.75 731.628 287.75 731.628 285.45V224.55C731.628 222.25 732.428 220.25 734.028 218.55C735.728 216.85 737.728 216 740.028 216H747.378C749.678 216 751.628 216.85 753.228 218.55C754.928 220.25 755.778 222.25 755.778 224.55V230.85C755.778 230.95 755.828 231 755.928 231C756.128 231 756.228 230.95 756.228 230.85C762.428 222.55 771.078 217.7 782.178 216.3C784.478 216 786.428 216.7 788.028 218.4C789.728 220.1 790.578 222.15 790.578 224.55V225.75C790.578 228.05 789.728 230.05 788.028 231.75C786.428 233.45 784.428 234.4 782.028 234.6C773.928 235.5 767.628 238.3 763.128 243C758.728 247.6 756.528 253.6 756.528 261V285.45C756.528 287.75 755.678 289.75 753.978 291.45C752.378 293.15 750.428 294 748.128 294H740.028ZM819.66 294C817.36 294 815.36 293.15 813.66 291.45C811.96 289.75 811.11 287.75 811.11 285.45V224.55C811.11 222.25 811.96 220.25 813.66 218.55C815.36 216.85 817.36 216 819.66 216H828.06C830.36 216 832.36 216.85 834.06 218.55C835.76 220.25 836.61 222.25 836.61 224.55V285.45C836.61 287.75 835.76 289.75 834.06 291.45C832.36 293.15 830.36 294 828.06 294H819.66ZM819.66 201C817.36 201 815.36 200.15 813.66 198.45C811.96 196.75 811.11 194.75 811.11 192.45V190.05C811.11 187.75 811.96 185.75 813.66 184.05C815.36 182.35 817.36 181.5 819.66 181.5H828.06C830.36 181.5 832.36 182.35 834.06 184.05C835.76 185.75 836.61 187.75 836.61 190.05V192.45C836.61 194.75 835.76 196.75 834.06 198.45C832.36 200.15 830.36 201 828.06 201H819.66ZM913.797 294C911.497 294 909.497 293.15 907.797 291.45C906.097 289.75 905.247 287.75 905.247 285.45V193.05C905.247 190.75 906.097 188.75 907.797 187.05C909.497 185.35 911.497 184.5 913.797 184.5H922.347C924.647 184.5 926.597 185.35 928.197 187.05C929.897 188.75 930.747 190.75 930.747 193.05V231.3C930.747 231.4 930.797 231.45 930.897 231.45C931.097 231.45 931.197 231.4 931.197 231.3L956.697 191.7C959.697 186.9 964.047 184.5 969.747 184.5H982.347C984.147 184.5 985.447 185.3 986.247 186.9C987.047 188.5 986.947 190.05 985.947 191.55L955.497 235.95C954.997 236.65 954.997 237.35 955.497 238.05L987.597 286.95C988.597 288.45 988.647 290 987.747 291.6C986.947 293.2 985.647 294 983.847 294H971.247C965.547 294 961.247 291.6 958.347 286.8L931.197 242.7C931.197 242.6 931.097 242.55 930.897 242.55C930.797 242.55 930.747 242.6 930.747 242.7V285.45C930.747 287.75 929.897 289.75 928.197 291.45C926.597 293.15 924.647 294 922.347 294H913.797ZM1036 258.3C1023.8 258.3 1017.7 262.05 1017.7 269.55C1017.7 272.25 1018.5 274.4 1020.1 276C1021.7 277.5 1023.85 278.25 1026.55 278.25C1031.35 278.25 1035.25 276.75 1038.25 273.75C1041.25 270.65 1042.75 266.55 1042.75 261.45V259.65C1042.75 258.75 1042.3 258.3 1041.4 258.3H1036ZM1019.2 295.5C1012.3 295.5 1006.6 293.3 1002.1 288.9C997.704 284.4 995.504 278.6 995.504 271.5C995.504 253.3 1009 244.2 1036 244.2H1041.4C1042.3 244.2 1042.75 243.8 1042.75 243V242.25C1042.75 238.45 1041.75 235.7 1039.75 234C1037.85 232.3 1034.6 231.45 1030 231.45C1023.9 231.45 1016.6 232.4 1008.1 234.3C1006 234.7 1004.1 234.25 1002.4 232.95C1000.8 231.65 1000 229.95 1000 227.85V227.55C1000 225.05 1000.75 222.8 1002.25 220.8C1003.85 218.7 1005.85 217.45 1008.25 217.05C1017.05 215.35 1024.65 214.5 1031.05 214.5C1044.15 214.5 1053.4 216.85 1058.8 221.55C1064.3 226.25 1067.05 234.05 1067.05 244.95V285.45C1067.05 287.75 1066.2 289.75 1064.5 291.45C1062.8 293.15 1060.8 294 1058.5 294H1052.95C1050.55 294 1048.5 293.2 1046.8 291.6C1045.1 289.9 1044.2 287.85 1044.1 285.45V283.8C1044.1 283.7 1044.05 283.65 1043.95 283.65C1043.75 283.65 1043.65 283.7 1043.65 283.8C1037.35 291.6 1029.2 295.5 1019.2 295.5ZM1094.67 294C1092.37 294 1090.37 293.15 1088.67 291.45C1086.97 289.75 1086.12 287.75 1086.12 285.45V224.55C1086.12 222.25 1086.97 220.25 1088.67 218.55C1090.37 216.85 1092.37 216 1094.67 216H1100.22C1102.62 216 1104.62 216.85 1106.22 218.55C1107.92 220.15 1108.87 222.15 1109.07 224.55L1109.22 225.9C1109.22 226 1109.27 226.05 1109.37 226.05C1109.57 226.05 1109.67 226 1109.67 225.9C1115.57 218.3 1122.32 214.5 1129.92 214.5C1134.52 214.5 1138.17 215.35 1140.87 217.05C1143.57 218.65 1146.07 221.55 1148.37 225.75C1148.37 225.95 1148.47 226.05 1148.67 226.05L1148.97 225.75C1155.87 218.25 1163.07 214.5 1170.57 214.5C1179.07 214.5 1185.22 216.8 1189.02 221.4C1192.82 225.9 1194.72 233.6 1194.72 244.5V285.45C1194.72 287.75 1193.87 289.75 1192.17 291.45C1190.47 293.15 1188.47 294 1186.17 294H1179.57C1177.27 294 1175.27 293.15 1173.57 291.45C1171.87 289.75 1171.02 287.75 1171.02 285.45V246C1171.02 240.6 1170.42 237.05 1169.22 235.35C1168.02 233.55 1165.77 232.65 1162.47 232.65C1160.17 232.65 1157.92 233.6 1155.72 235.5C1153.62 237.4 1152.57 239.25 1152.57 241.05V285.45C1152.57 287.75 1151.72 289.75 1150.02 291.45C1148.32 293.15 1146.32 294 1144.02 294H1137.42C1135.12 294 1133.12 293.15 1131.42 291.45C1129.72 289.75 1128.87 287.75 1128.87 285.45V246C1128.87 240.6 1128.27 237.05 1127.07 235.35C1125.97 233.55 1123.77 232.65 1120.47 232.65C1118.17 232.65 1115.92 233.6 1113.72 235.5C1111.52 237.4 1110.42 239.25 1110.42 241.05V285.45C1110.42 287.75 1109.57 289.75 1107.87 291.45C1106.17 293.15 1104.17 294 1101.87 294H1094.67ZM1237.41 245.7V264.3C1237.41 267.6 1238.91 270.65 1241.91 273.45C1245.01 276.15 1248.51 277.5 1252.41 277.5C1257.01 277.5 1260.66 275.65 1263.36 271.95C1266.06 268.15 1267.41 262.5 1267.41 255C1267.41 240 1262.41 232.5 1252.41 232.5C1248.51 232.5 1245.01 233.9 1241.91 236.7C1238.91 239.4 1237.41 242.4 1237.41 245.7ZM1222.26 327C1219.96 327 1217.96 326.15 1216.26 324.45C1214.56 322.75 1213.71 320.75 1213.71 318.45V224.55C1213.71 222.25 1214.56 220.25 1216.26 218.55C1217.96 216.85 1219.96 216 1222.26 216H1228.26C1230.66 216 1232.71 216.85 1234.41 218.55C1236.11 220.15 1237.01 222.15 1237.11 224.55V225.75C1237.11 225.85 1237.16 225.9 1237.26 225.9L1237.56 225.6C1243.96 218.2 1251.66 214.5 1260.66 214.5C1269.96 214.5 1277.36 218 1282.86 225C1288.46 232 1291.26 242 1291.26 255C1291.26 267.6 1288.36 277.5 1282.56 284.7C1276.86 291.9 1269.56 295.5 1260.66 295.5C1252.36 295.5 1244.96 292.45 1238.46 286.35C1238.36 286.25 1238.26 286.2 1238.16 286.2C1238.06 286.2 1238.01 286.25 1238.01 286.35V318.45C1238.01 320.75 1237.16 322.75 1235.46 324.45C1233.76 326.15 1231.76 327 1229.46 327H1222.26ZM1330.88 295.5C1322.08 295.5 1315.68 293.05 1311.68 288.15C1307.78 283.25 1305.83 274.85 1305.83 262.95V224.55C1305.83 222.25 1306.68 220.25 1308.38 218.55C1310.08 216.85 1312.08 216 1314.38 216H1320.98C1323.28 216 1325.28 216.85 1326.98 218.55C1328.68 220.25 1329.53 222.25 1329.53 224.55V261.3C1329.53 267.1 1330.28 271.1 1331.78 273.3C1333.38 275.4 1336.08 276.45 1339.88 276.45C1343.38 276.45 1346.58 275.05 1349.48 272.25C1352.38 269.35 1353.83 266.25 1353.83 262.95V224.55C1353.83 222.25 1354.68 220.25 1356.38 218.55C1358.08 216.85 1360.08 216 1362.38 216H1369.58C1371.88 216 1373.88 216.85 1375.58 218.55C1377.28 220.25 1378.13 222.25 1378.13 224.55V285.45C1378.13 287.75 1377.28 289.75 1375.58 291.45C1373.88 293.15 1371.88 294 1369.58 294H1363.43C1361.03 294 1358.98 293.2 1357.28 291.6C1355.68 289.9 1354.83 287.85 1354.73 285.45V284.25C1354.73 284.15 1354.68 284.1 1354.58 284.1L1354.28 284.4C1347.78 291.8 1339.98 295.5 1330.88 295.5ZM1425.88 264C1415.08 262 1407.33 258.9 1402.63 254.7C1398.03 250.5 1395.73 244.95 1395.73 238.05C1395.73 230.65 1398.48 224.9 1403.98 220.8C1409.58 216.6 1417.98 214.5 1429.18 214.5C1435.78 214.5 1442.53 215.05 1449.43 216.15C1451.83 216.55 1453.78 217.7 1455.28 219.6C1456.88 221.5 1457.68 223.7 1457.68 226.2V226.95C1457.68 229.05 1456.83 230.75 1455.13 232.05C1453.53 233.35 1451.68 233.8 1449.58 233.4C1443.08 232.1 1437.08 231.45 1431.58 231.45C1427.48 231.45 1424.58 231.95 1422.88 232.95C1421.28 233.95 1420.48 235.45 1420.48 237.45C1420.48 241.25 1423.48 243.75 1429.48 244.95C1440.88 246.85 1448.83 249.85 1453.33 253.95C1457.93 258.05 1460.23 264 1460.23 271.8C1460.23 279.3 1457.43 285.15 1451.83 289.35C1446.23 293.45 1438.08 295.5 1427.38 295.5C1419.58 295.5 1412.18 294.75 1405.18 293.25C1402.78 292.75 1400.78 291.5 1399.18 289.5C1397.68 287.4 1396.93 285.05 1396.93 282.45V281.25C1396.93 279.15 1397.78 277.55 1399.48 276.45C1401.18 275.25 1403.08 274.9 1405.18 275.4C1411.68 277.1 1418.08 277.95 1424.38 277.95C1431.78 277.95 1435.48 275.8 1435.48 271.5C1435.48 269.5 1434.78 267.95 1433.38 266.85C1432.08 265.75 1429.58 264.8 1425.88 264ZM1478.48 206.7C1476.48 207.2 1474.63 206.85 1472.93 205.65C1471.23 204.35 1470.38 202.65 1470.38 200.55V196.05C1470.38 193.55 1471.13 191.35 1472.63 189.45C1474.23 187.45 1476.23 186.25 1478.63 185.85C1488.93 183.95 1498.78 183 1508.18 183C1520.48 183 1530.08 185.45 1536.98 190.35C1543.88 195.25 1547.33 201.65 1547.33 209.55C1547.33 213.25 1546.83 216.55 1545.83 219.45C1544.93 222.35 1543.38 225 1541.18 227.4C1539.08 229.8 1537.23 231.65 1535.63 232.95C1534.13 234.15 1531.83 235.8 1528.73 237.9C1526.13 239.8 1524.23 241.2 1523.03 242.1C1521.83 242.9 1520.38 244.2 1518.68 246C1516.98 247.7 1515.68 249.4 1514.78 251.1C1511.98 256.5 1508.43 259.2 1504.13 259.2H1497.68C1495.28 259.2 1493.28 258.35 1491.68 256.65C1490.08 254.95 1489.58 253 1490.18 250.8C1491.08 247.4 1492.68 244.15 1494.98 241.05C1497.28 237.85 1499.33 235.5 1501.13 234C1502.93 232.4 1505.53 230.35 1508.93 227.85C1511.63 225.85 1513.63 224.25 1514.93 223.05C1516.33 221.85 1517.63 220.35 1518.83 218.55C1520.03 216.75 1520.63 214.9 1520.63 213C1520.63 206.4 1515.23 203.1 1504.43 203.1C1496.53 203.1 1487.88 204.3 1478.48 206.7ZM1496.33 271.5H1505.33C1507.63 271.5 1509.63 272.35 1511.33 274.05C1513.03 275.75 1513.88 277.75 1513.88 280.05V285.45C1513.88 287.75 1513.03 289.75 1511.33 291.45C1509.63 293.15 1507.63 294 1505.33 294H1496.33C1494.03 294 1492.03 293.15 1490.33 291.45C1488.73 289.75 1487.93 287.75 1487.93 285.45V280.05C1487.93 277.75 1488.73 275.75 1490.33 274.05C1492.03 272.35 1494.03 271.5 1496.33 271.5ZM571.902 517C569.602 517 567.602 516.15 565.902 514.45C564.202 512.75 563.352 510.75 563.352 508.45V416.05C563.352 413.75 564.202 411.75 565.902 410.05C567.602 408.35 569.602 407.5 571.902 407.5H581.202C583.502 407.5 585.452 408.35 587.052 410.05C588.752 411.75 589.602 413.75 589.602 416.05V494.65C589.602 495.45 590.052 495.85 590.952 495.85H627.402C629.702 495.85 631.702 496.7 633.402 498.4C635.102 500.1 635.952 502.1 635.952 504.4V508.45C635.952 510.75 635.102 512.75 633.402 514.45C631.702 516.15 629.702 517 627.402 517H571.902ZM684.072 453.85C679.572 453.85 676.172 455.05 673.872 457.45C671.572 459.75 670.122 463.75 669.522 469.45C669.522 470.25 669.872 470.65 670.572 470.65H695.922C696.822 470.65 697.272 470.2 697.272 469.3C696.872 459 692.472 453.85 684.072 453.85ZM687.822 518.5C674.222 518.5 663.722 515.05 656.322 508.15C649.022 501.25 645.372 491.2 645.372 478C645.372 464.9 648.622 454.9 655.122 448C661.722 441 671.222 437.5 683.622 437.5C707.422 437.5 719.522 450.5 719.922 476.5C719.922 478.9 718.972 480.95 717.072 482.65C715.272 484.25 713.172 485.05 710.772 485.05H670.722C669.722 485.05 669.322 485.5 669.522 486.4C670.322 491.9 672.422 495.85 675.822 498.25C679.322 500.55 684.522 501.7 691.422 501.7C695.922 501.7 700.772 501.05 705.972 499.75C708.072 499.25 709.922 499.65 711.522 500.95C713.222 502.25 714.072 503.95 714.072 506.05V506.35C714.072 508.85 713.272 511.15 711.672 513.25C710.172 515.25 708.222 516.45 705.822 516.85C700.022 517.95 694.022 518.5 687.822 518.5ZM744.025 508.75L730.075 447.25C729.675 445.15 730.125 443.25 731.425 441.55C732.725 439.85 734.475 439 736.675 439H744.175C746.675 439 748.825 439.8 750.625 441.4C752.425 443 753.525 445 753.925 447.4L761.425 497.35C761.425 497.45 761.475 497.5 761.575 497.5C761.675 497.5 761.725 497.45 761.725 497.35L769.975 447.4C770.375 445 771.475 443 773.275 441.4C775.075 439.8 777.225 439 779.725 439H790.825C793.325 439 795.475 439.8 797.275 441.4C799.175 443 800.325 445 800.725 447.4L808.825 497.35C808.825 497.45 808.875 497.5 808.975 497.5C809.075 497.5 809.125 497.45 809.125 497.35L816.625 447.4C817.025 445 818.125 443 819.925 441.4C821.725 439.8 823.875 439 826.375 439H833.275C835.475 439 837.225 439.85 838.525 441.55C839.925 443.25 840.375 445.15 839.875 447.25L825.925 508.75C825.425 511.15 824.175 513.15 822.175 514.75C820.175 516.25 817.925 517 815.425 517H803.725C801.225 517 799.025 516.2 797.125 514.6C795.325 513 794.175 511 793.675 508.6L785.125 460.15C785.125 460.05 785.075 460 784.975 460C784.875 460 784.825 460.05 784.825 460.15L776.275 508.6C775.875 511 774.725 513 772.825 514.6C770.925 516.2 768.725 517 766.225 517H754.525C752.025 517 749.775 516.25 747.775 514.75C745.775 513.15 744.525 511.15 744.025 508.75ZM889.96 481.3C877.76 481.3 871.66 485.05 871.66 492.55C871.66 495.25 872.46 497.4 874.06 499C875.66 500.5 877.81 501.25 880.51 501.25C885.31 501.25 889.21 499.75 892.21 496.75C895.21 493.65 896.71 489.55 896.71 484.45V482.65C896.71 481.75 896.26 481.3 895.36 481.3H889.96ZM873.16 518.5C866.26 518.5 860.56 516.3 856.06 511.9C851.66 507.4 849.46 501.6 849.46 494.5C849.46 476.3 862.96 467.2 889.96 467.2H895.36C896.26 467.2 896.71 466.8 896.71 466V465.25C896.71 461.45 895.71 458.7 893.71 457C891.81 455.3 888.56 454.45 883.96 454.45C877.86 454.45 870.56 455.4 862.06 457.3C859.96 457.7 858.06 457.25 856.36 455.95C854.76 454.65 853.96 452.95 853.96 450.85V450.55C853.96 448.05 854.71 445.8 856.21 443.8C857.81 441.7 859.81 440.45 862.21 440.05C871.01 438.35 878.61 437.5 885.01 437.5C898.11 437.5 907.36 439.85 912.76 444.55C918.26 449.25 921.01 457.05 921.01 467.95V508.45C921.01 510.75 920.16 512.75 918.46 514.45C916.76 516.15 914.76 517 912.46 517H906.91C904.51 517 902.46 516.2 900.76 514.6C899.06 512.9 898.16 510.85 898.06 508.45V506.8C898.06 506.7 898.01 506.65 897.91 506.65C897.71 506.65 897.61 506.7 897.61 506.8C891.31 514.6 883.16 518.5 873.16 518.5ZM940.334 458.95C938.034 458.95 936.034 458.15 934.334 456.55C932.634 454.85 931.784 452.85 931.784 450.55C931.784 448.25 932.634 446.25 934.334 444.55C936.034 442.85 938.034 442 940.334 442H946.334C947.134 442 947.534 441.55 947.534 440.65V422.05C947.534 419.75 948.384 417.75 950.084 416.05C951.784 414.35 953.784 413.5 956.084 413.5H963.284C965.584 413.5 967.584 414.35 969.284 416.05C970.984 417.75 971.834 419.75 971.834 422.05V440.65C971.834 441.55 972.284 442 973.184 442H987.884C990.184 442 992.134 442.85 993.734 444.55C995.434 446.25 996.284 448.25 996.284 450.55C996.284 452.85 995.434 454.85 993.734 456.55C992.134 458.15 990.184 458.95 987.884 458.95H973.184C972.284 458.95 971.834 459.4 971.834 460.3V485.95C971.834 492.25 972.384 496.25 973.484 497.95C974.684 499.65 977.284 500.5 981.284 500.5C983.384 500.5 985.034 500.4 986.234 500.2C988.434 499.9 990.384 500.4 992.084 501.7C993.784 503 994.634 504.7 994.634 506.8V508C994.634 510.5 993.834 512.7 992.234 514.6C990.634 516.5 988.584 517.6 986.084 517.9C982.984 518.3 979.384 518.5 975.284 518.5C965.084 518.5 957.884 516.35 953.684 512.05C949.584 507.65 947.534 499.8 947.534 488.5V460.3C947.534 459.4 947.134 458.95 946.334 458.95H940.334ZM1069.8 517C1067.5 517 1065.5 516.15 1063.8 514.45C1062.1 512.75 1061.25 510.75 1061.25 508.45V416.05C1061.25 413.75 1062.1 411.75 1063.8 410.05C1065.5 408.35 1067.5 407.5 1069.8 407.5H1079.1C1081.4 407.5 1083.35 408.35 1084.95 410.05C1086.65 411.75 1087.5 413.75 1087.5 416.05V494.65C1087.5 495.45 1087.95 495.85 1088.85 495.85H1125.3C1127.6 495.85 1129.6 496.7 1131.3 498.4C1133 500.1 1133.85 502.1 1133.85 504.4V508.45C1133.85 510.75 1133 512.75 1131.3 514.45C1129.6 516.15 1127.6 517 1125.3 517H1069.8ZM1163.75 517C1161.45 517 1159.45 516.15 1157.75 514.45C1156.05 512.75 1155.2 510.75 1155.2 508.45V447.55C1155.2 445.25 1156.05 443.25 1157.75 441.55C1159.45 439.85 1161.45 439 1163.75 439H1172.15C1174.45 439 1176.45 439.85 1178.15 441.55C1179.85 443.25 1180.7 445.25 1180.7 447.55V508.45C1180.7 510.75 1179.85 512.75 1178.15 514.45C1176.45 516.15 1174.45 517 1172.15 517H1163.75ZM1163.75 424C1161.45 424 1159.45 423.15 1157.75 421.45C1156.05 419.75 1155.2 417.75 1155.2 415.45V413.05C1155.2 410.75 1156.05 408.75 1157.75 407.05C1159.45 405.35 1161.45 404.5 1163.75 404.5H1172.15C1174.45 404.5 1176.45 405.35 1178.15 407.05C1179.85 408.75 1180.7 410.75 1180.7 413.05V415.45C1180.7 417.75 1179.85 419.75 1178.15 421.45C1176.45 423.15 1174.45 424 1172.15 424H1163.75ZM1213.49 517C1211.19 517 1209.19 516.15 1207.49 514.45C1205.79 512.75 1204.94 510.75 1204.94 508.45V413.05C1204.94 410.75 1205.79 408.75 1207.49 407.05C1209.19 405.35 1211.19 404.5 1213.49 404.5H1220.69C1222.99 404.5 1224.99 405.35 1226.69 407.05C1228.39 408.75 1229.24 410.75 1229.24 413.05V447.1C1229.24 447.2 1229.29 447.25 1229.39 447.25C1229.49 447.25 1229.59 447.2 1229.69 447.1C1236.69 440.7 1244.19 437.5 1252.19 437.5C1261.39 437.5 1267.99 440.15 1271.99 445.45C1275.99 450.65 1277.99 460 1277.99 473.5V508.45C1277.99 510.75 1277.14 512.75 1275.44 514.45C1273.74 516.15 1271.74 517 1269.44 517H1262.84C1260.54 517 1258.54 516.15 1256.84 514.45C1255.14 512.75 1254.29 510.75 1254.29 508.45V476.5C1254.29 468.5 1253.49 463.2 1251.89 460.6C1250.39 458 1247.49 456.7 1243.19 456.7C1239.79 456.7 1236.59 458.2 1233.59 461.2C1230.69 464.1 1229.24 467.2 1229.24 470.5V508.45C1229.24 510.75 1228.39 512.75 1226.69 514.45C1224.99 516.15 1222.99 517 1220.69 517H1213.49ZM1333.81 481.3C1321.61 481.3 1315.51 485.05 1315.51 492.55C1315.51 495.25 1316.31 497.4 1317.91 499C1319.51 500.5 1321.66 501.25 1324.36 501.25C1329.16 501.25 1333.06 499.75 1336.06 496.75C1339.06 493.65 1340.56 489.55 1340.56 484.45V482.65C1340.56 481.75 1340.11 481.3 1339.21 481.3H1333.81ZM1317.01 518.5C1310.11 518.5 1304.41 516.3 1299.91 511.9C1295.51 507.4 1293.31 501.6 1293.31 494.5C1293.31 476.3 1306.81 467.2 1333.81 467.2H1339.21C1340.11 467.2 1340.56 466.8 1340.56 466V465.25C1340.56 461.45 1339.56 458.7 1337.56 457C1335.66 455.3 1332.41 454.45 1327.81 454.45C1321.71 454.45 1314.41 455.4 1305.91 457.3C1303.81 457.7 1301.91 457.25 1300.21 455.95C1298.61 454.65 1297.81 452.95 1297.81 450.85V450.55C1297.81 448.05 1298.56 445.8 1300.06 443.8C1301.66 441.7 1303.66 440.45 1306.06 440.05C1314.86 438.35 1322.46 437.5 1328.86 437.5C1341.96 437.5 1351.21 439.85 1356.61 444.55C1362.11 449.25 1364.86 457.05 1364.86 467.95V508.45C1364.86 510.75 1364.01 512.75 1362.31 514.45C1360.61 516.15 1358.61 517 1356.31 517H1350.76C1348.36 517 1346.31 516.2 1344.61 514.6C1342.91 512.9 1342.01 510.85 1341.91 508.45V506.8C1341.91 506.7 1341.86 506.65 1341.76 506.65C1341.56 506.65 1341.46 506.7 1341.46 506.8C1335.16 514.6 1327.01 518.5 1317.01 518.5ZM1384.18 458.95C1381.88 458.95 1379.88 458.15 1378.18 456.55C1376.48 454.85 1375.63 452.85 1375.63 450.55C1375.63 448.25 1376.48 446.25 1378.18 444.55C1379.88 442.85 1381.88 442 1384.18 442H1390.18C1390.98 442 1391.38 441.55 1391.38 440.65V422.05C1391.38 419.75 1392.23 417.75 1393.93 416.05C1395.63 414.35 1397.63 413.5 1399.93 413.5H1407.13C1409.43 413.5 1411.43 414.35 1413.13 416.05C1414.83 417.75 1415.68 419.75 1415.68 422.05V440.65C1415.68 441.55 1416.13 442 1417.03 442H1431.73C1434.03 442 1435.98 442.85 1437.58 444.55C1439.28 446.25 1440.13 448.25 1440.13 450.55C1440.13 452.85 1439.28 454.85 1437.58 456.55C1435.98 458.15 1434.03 458.95 1431.73 458.95H1417.03C1416.13 458.95 1415.68 459.4 1415.68 460.3V485.95C1415.68 492.25 1416.23 496.25 1417.33 497.95C1418.53 499.65 1421.13 500.5 1425.13 500.5C1427.23 500.5 1428.88 500.4 1430.08 500.2C1432.28 499.9 1434.23 500.4 1435.93 501.7C1437.63 503 1438.48 504.7 1438.48 506.8V508C1438.48 510.5 1437.68 512.7 1436.08 514.6C1434.48 516.5 1432.43 517.6 1429.93 517.9C1426.83 518.3 1423.23 518.5 1419.13 518.5C1408.93 518.5 1401.73 516.35 1397.53 512.05C1393.43 507.65 1391.38 499.8 1391.38 488.5V460.3C1391.38 459.4 1390.98 458.95 1390.18 458.95H1384.18ZM557.913 740C555.613 740 553.613 739.15 551.913 737.45C550.213 735.75 549.363 733.75 549.363 731.45V639.05C549.363 636.75 550.213 634.75 551.913 633.05C553.613 631.35 555.613 630.5 557.913 630.5H566.463C568.763 630.5 570.713 631.35 572.313 633.05C574.013 634.75 574.863 636.75 574.863 639.05V677.3C574.863 677.4 574.913 677.45 575.013 677.45C575.213 677.45 575.313 677.4 575.313 677.3L600.813 637.7C603.813 632.9 608.163 630.5 613.863 630.5H626.463C628.263 630.5 629.563 631.3 630.363 632.9C631.163 634.5 631.063 636.05 630.063 637.55L599.613 681.95C599.113 682.65 599.113 683.35 599.613 684.05L631.713 732.95C632.713 734.45 632.763 736 631.863 737.6C631.063 739.2 629.763 740 627.963 740H615.363C609.663 740 605.363 737.6 602.463 732.8L575.313 688.7C575.313 688.6 575.213 688.55 575.013 688.55C574.913 688.55 574.863 688.6 574.863 688.7V731.45C574.863 733.75 574.013 735.75 572.313 737.45C570.713 739.15 568.763 740 566.463 740H557.913ZM680.121 704.3C667.921 704.3 661.821 708.05 661.821 715.55C661.821 718.25 662.621 720.4 664.221 722C665.821 723.5 667.971 724.25 670.671 724.25C675.471 724.25 679.371 722.75 682.371 719.75C685.371 716.65 686.871 712.55 686.871 707.45V705.65C686.871 704.75 686.421 704.3 685.521 704.3H680.121ZM663.321 741.5C656.421 741.5 650.721 739.3 646.221 734.9C641.821 730.4 639.621 724.6 639.621 717.5C639.621 699.3 653.121 690.2 680.121 690.2H685.521C686.421 690.2 686.871 689.8 686.871 689V688.25C686.871 684.45 685.871 681.7 683.871 680C681.971 678.3 678.721 677.45 674.121 677.45C668.021 677.45 660.721 678.4 652.221 680.3C650.121 680.7 648.221 680.25 646.521 678.95C644.921 677.65 644.121 675.95 644.121 673.85V673.55C644.121 671.05 644.871 668.8 646.371 666.8C647.971 664.7 649.971 663.45 652.371 663.05C661.171 661.35 668.771 660.5 675.171 660.5C688.271 660.5 697.521 662.85 702.921 667.55C708.421 672.25 711.171 680.05 711.171 690.95V731.45C711.171 733.75 710.321 735.75 708.621 737.45C706.921 739.15 704.921 740 702.621 740H697.071C694.671 740 692.621 739.2 690.921 737.6C689.221 735.9 688.321 733.85 688.221 731.45V729.8C688.221 729.7 688.171 729.65 688.071 729.65C687.871 729.65 687.771 729.7 687.771 729.8C681.471 737.6 673.321 741.5 663.321 741.5ZM738.786 740C736.486 740 734.486 739.15 732.786 737.45C731.086 735.75 730.236 733.75 730.236 731.45V670.55C730.236 668.25 731.086 666.25 732.786 664.55C734.486 662.85 736.486 662 738.786 662H744.336C746.736 662 748.736 662.85 750.336 664.55C752.036 666.15 752.986 668.15 753.186 670.55L753.336 671.9C753.336 672 753.386 672.05 753.486 672.05C753.686 672.05 753.786 672 753.786 671.9C759.686 664.3 766.436 660.5 774.036 660.5C778.636 660.5 782.286 661.35 784.986 663.05C787.686 664.65 790.186 667.55 792.486 671.75C792.486 671.95 792.586 672.05 792.786 672.05L793.086 671.75C799.986 664.25 807.186 660.5 814.686 660.5C823.186 660.5 829.336 662.8 833.136 667.4C836.936 671.9 838.836 679.6 838.836 690.5V731.45C838.836 733.75 837.986 735.75 836.286 737.45C834.586 739.15 832.586 740 830.286 740H823.686C821.386 740 819.386 739.15 817.686 737.45C815.986 735.75 815.136 733.75 815.136 731.45V692C815.136 686.6 814.536 683.05 813.336 681.35C812.136 679.55 809.886 678.65 806.586 678.65C804.286 678.65 802.036 679.6 799.836 681.5C797.736 683.4 796.686 685.25 796.686 687.05V731.45C796.686 733.75 795.836 735.75 794.136 737.45C792.436 739.15 790.436 740 788.136 740H781.536C779.236 740 777.236 739.15 775.536 737.45C773.836 735.75 772.986 733.75 772.986 731.45V692C772.986 686.6 772.386 683.05 771.186 681.35C770.086 679.55 767.886 678.65 764.586 678.65C762.286 678.65 760.036 679.6 757.836 681.5C755.636 683.4 754.536 685.25 754.536 687.05V731.45C754.536 733.75 753.686 735.75 751.986 737.45C750.286 739.15 748.286 740 745.986 740H738.786ZM881.524 691.7V710.3C881.524 713.6 883.024 716.65 886.024 719.45C889.124 722.15 892.624 723.5 896.524 723.5C901.124 723.5 904.774 721.65 907.474 717.95C910.174 714.15 911.524 708.5 911.524 701C911.524 686 906.524 678.5 896.524 678.5C892.624 678.5 889.124 679.9 886.024 682.7C883.024 685.4 881.524 688.4 881.524 691.7ZM866.374 773C864.074 773 862.074 772.15 860.374 770.45C858.674 768.75 857.824 766.75 857.824 764.45V670.55C857.824 668.25 858.674 666.25 860.374 664.55C862.074 662.85 864.074 662 866.374 662H872.374C874.774 662 876.824 662.85 878.524 664.55C880.224 666.15 881.124 668.15 881.224 670.55V671.75C881.224 671.85 881.274 671.9 881.374 671.9L881.674 671.6C888.074 664.2 895.774 660.5 904.774 660.5C914.074 660.5 921.474 664 926.974 671C932.574 678 935.374 688 935.374 701C935.374 713.6 932.474 723.5 926.674 730.7C920.974 737.9 913.674 741.5 904.774 741.5C896.474 741.5 889.074 738.45 882.574 732.35C882.474 732.25 882.374 732.2 882.274 732.2C882.174 732.2 882.124 732.25 882.124 732.35V764.45C882.124 766.75 881.274 768.75 879.574 770.45C877.874 772.15 875.874 773 873.574 773H866.374ZM974.995 741.5C966.195 741.5 959.795 739.05 955.795 734.15C951.895 729.25 949.945 720.85 949.945 708.95V670.55C949.945 668.25 950.795 666.25 952.495 664.55C954.195 662.85 956.195 662 958.495 662H965.095C967.395 662 969.395 662.85 971.095 664.55C972.795 666.25 973.645 668.25 973.645 670.55V707.3C973.645 713.1 974.395 717.1 975.895 719.3C977.495 721.4 980.195 722.45 983.995 722.45C987.495 722.45 990.695 721.05 993.595 718.25C996.495 715.35 997.945 712.25 997.945 708.95V670.55C997.945 668.25 998.795 666.25 1000.49 664.55C1002.19 662.85 1004.19 662 1006.49 662H1013.69C1015.99 662 1017.99 662.85 1019.69 664.55C1021.39 666.25 1022.24 668.25 1022.24 670.55V731.45C1022.24 733.75 1021.39 735.75 1019.69 737.45C1017.99 739.15 1015.99 740 1013.69 740H1007.54C1005.14 740 1003.09 739.2 1001.39 737.6C999.795 735.9 998.945 733.85 998.845 731.45V730.25C998.845 730.15 998.795 730.1 998.695 730.1L998.395 730.4C991.895 737.8 984.095 741.5 974.995 741.5ZM1070 710C1059.2 708 1051.45 704.9 1046.75 700.7C1042.15 696.5 1039.85 690.95 1039.85 684.05C1039.85 676.65 1042.6 670.9 1048.1 666.8C1053.7 662.6 1062.1 660.5 1073.3 660.5C1079.9 660.5 1086.65 661.05 1093.55 662.15C1095.95 662.55 1097.9 663.7 1099.4 665.6C1101 667.5 1101.8 669.7 1101.8 672.2V672.95C1101.8 675.05 1100.95 676.75 1099.25 678.05C1097.65 679.35 1095.8 679.8 1093.7 679.4C1087.2 678.1 1081.2 677.45 1075.7 677.45C1071.6 677.45 1068.7 677.95 1067 678.95C1065.4 679.95 1064.6 681.45 1064.6 683.45C1064.6 687.25 1067.6 689.75 1073.6 690.95C1085 692.85 1092.95 695.85 1097.45 699.95C1102.05 704.05 1104.35 710 1104.35 717.8C1104.35 725.3 1101.55 731.15 1095.95 735.35C1090.35 739.45 1082.2 741.5 1071.5 741.5C1063.7 741.5 1056.3 740.75 1049.3 739.25C1046.9 738.75 1044.9 737.5 1043.3 735.5C1041.8 733.4 1041.05 731.05 1041.05 728.45V727.25C1041.05 725.15 1041.9 723.55 1043.6 722.45C1045.3 721.25 1047.2 720.9 1049.3 721.4C1055.8 723.1 1062.2 723.95 1068.5 723.95C1075.9 723.95 1079.6 721.8 1079.6 717.5C1079.6 715.5 1078.9 713.95 1077.5 712.85C1076.2 711.75 1073.7 710.8 1070 710ZM1206.09 652.7L1195.14 695.75C1195.04 696.05 1195.09 696.35 1195.29 696.65C1195.59 696.85 1195.89 696.95 1196.19 696.95H1216.29C1216.59 696.95 1216.84 696.85 1217.04 696.65C1217.34 696.35 1217.44 696.05 1217.34 695.75L1206.39 652.7C1206.39 652.6 1206.34 652.55 1206.24 652.55C1206.14 652.55 1206.09 652.6 1206.09 652.7ZM1166.04 740C1163.94 740 1162.24 739.15 1160.94 737.45C1159.74 735.75 1159.49 733.9 1160.19 731.9L1190.49 638.6C1191.29 636.2 1192.69 634.25 1194.69 632.75C1196.79 631.25 1199.09 630.5 1201.59 630.5H1211.49C1214.09 630.5 1216.44 631.25 1218.54 632.75C1220.64 634.25 1222.04 636.2 1222.74 638.6L1252.89 731.9C1253.59 733.9 1253.29 735.75 1251.99 737.45C1250.79 739.15 1249.14 740 1247.04 740H1236.99C1234.49 740 1232.24 739.25 1230.24 737.75C1228.24 736.15 1226.94 734.15 1226.34 731.75L1222.74 717.5C1222.64 716.7 1222.14 716.3 1221.24 716.3H1191.24C1190.44 716.3 1189.94 716.7 1189.74 717.5L1186.14 731.75C1185.54 734.15 1184.24 736.15 1182.24 737.75C1180.24 739.25 1177.99 740 1175.49 740H1166.04ZM1260.85 772.85C1258.55 772.95 1256.6 772.15 1255 770.45C1253.3 768.75 1252.45 766.75 1252.45 764.45V762.65C1252.45 760.25 1253.3 758.25 1255 756.65C1256.6 755.05 1258.6 754.15 1261 753.95C1267.5 753.55 1271.7 752.3 1273.6 750.2C1275.5 748.2 1276.45 744.3 1276.45 738.5V670.55C1276.45 668.25 1277.25 666.25 1278.85 664.55C1280.55 662.85 1282.55 662 1284.85 662H1293.4C1295.7 662 1297.7 662.85 1299.4 664.55C1301.1 666.25 1301.95 668.25 1301.95 670.55V738.5C1301.95 751.1 1299.15 759.8 1293.55 764.6C1288.05 769.5 1277.15 772.25 1260.85 772.85ZM1293.4 627.5C1295.7 627.5 1297.7 628.35 1299.4 630.05C1301.1 631.75 1301.95 633.75 1301.95 636.05V638.45C1301.95 640.75 1301.1 642.75 1299.4 644.45C1297.7 646.15 1295.7 647 1293.4 647H1284.85C1282.55 647 1280.55 646.15 1278.85 644.45C1277.25 642.75 1276.45 640.75 1276.45 638.45V636.05C1276.45 633.75 1277.25 631.75 1278.85 630.05C1280.55 628.35 1282.55 627.5 1284.85 627.5H1293.4ZM1362.3 704.3C1350.1 704.3 1344 708.05 1344 715.55C1344 718.25 1344.8 720.4 1346.4 722C1348 723.5 1350.15 724.25 1352.85 724.25C1357.65 724.25 1361.55 722.75 1364.55 719.75C1367.55 716.65 1369.05 712.55 1369.05 707.45V705.65C1369.05 704.75 1368.6 704.3 1367.7 704.3H1362.3ZM1345.5 741.5C1338.6 741.5 1332.9 739.3 1328.4 734.9C1324 730.4 1321.8 724.6 1321.8 717.5C1321.8 699.3 1335.3 690.2 1362.3 690.2H1367.7C1368.6 690.2 1369.05 689.8 1369.05 689V688.25C1369.05 684.45 1368.05 681.7 1366.05 680C1364.15 678.3 1360.9 677.45 1356.3 677.45C1350.2 677.45 1342.9 678.4 1334.4 680.3C1332.3 680.7 1330.4 680.25 1328.7 678.95C1327.1 677.65 1326.3 675.95 1326.3 673.85V673.55C1326.3 671.05 1327.05 668.8 1328.55 666.8C1330.15 664.7 1332.15 663.45 1334.55 663.05C1343.35 661.35 1350.95 660.5 1357.35 660.5C1370.45 660.5 1379.7 662.85 1385.1 667.55C1390.6 672.25 1393.35 680.05 1393.35 690.95V731.45C1393.35 733.75 1392.5 735.75 1390.8 737.45C1389.1 739.15 1387.1 740 1384.8 740H1379.25C1376.85 740 1374.8 739.2 1373.1 737.6C1371.4 735.9 1370.5 733.85 1370.4 731.45V729.8C1370.4 729.7 1370.35 729.65 1370.25 729.65C1370.05 729.65 1369.95 729.7 1369.95 729.8C1363.65 737.6 1355.5 741.5 1345.5 741.5ZM1430.41 705.5C1428.01 705.5 1425.96 704.7 1424.26 703.1C1422.66 701.4 1421.76 699.35 1421.56 696.95L1418.56 639.05C1418.46 636.75 1419.21 634.75 1420.81 633.05C1422.41 631.35 1424.36 630.5 1426.66 630.5H1440.16C1442.46 630.5 1444.41 631.35 1446.01 633.05C1447.71 634.75 1448.46 636.75 1448.26 639.05L1445.41 696.95C1445.31 699.35 1444.36 701.4 1442.56 703.1C1440.86 704.7 1438.81 705.5 1436.41 705.5H1430.41ZM1437.91 717.5C1440.21 717.5 1442.21 718.35 1443.91 720.05C1445.61 721.75 1446.46 723.75 1446.46 726.05V731.45C1446.46 733.75 1445.61 735.75 1443.91 737.45C1442.21 739.15 1440.21 740 1437.91 740H1428.91C1426.61 740 1424.61 739.15 1422.91 737.45C1421.21 735.75 1420.36 733.75 1420.36 731.45V726.05C1420.36 723.75 1421.21 721.75 1422.91 720.05C1424.61 718.35 1426.61 717.5 1428.91 717.5H1437.91Z" fill="#00387A"/>
</g>
<defs>
<clipPath id="clip0">
<rect width="2002" height="920" fill="white"/>
</clipPath>
</defs>
</svg>
